<svg width="24" height="24" viewBox="0 0 24 24" fill="none" xmlns="http://www.w3.org/2000/svg">
<path fill-rule="evenodd" clip-rule="evenodd" d="M12 23C18.075 23 23 18.075 23 12C23 5.925 18.075 1 12 1C5.925 1 1 5.925 1 12C1 18.075 5.925 23 12 23ZM7.293 16.707C7.10553 16.5195 7.00021 16.2652 7.00021 16C7.00021 15.7348 7.10553 15.4805 7.293 15.293L10.586 12L7.293 8.707C7.11084 8.5184 7.01005 8.2658 7.01233 8.0036C7.0146 7.7414 7.11977 7.49059 7.30518 7.30518C7.49059 7.11977 7.7414 7.0146 8.0036 7.01233C8.2658 7.01005 8.5184 7.11084 8.707 7.293L12 10.586L15.293 7.293C15.3852 7.19749 15.4956 7.12131 15.6176 7.0689C15.7396 7.01649 15.8708 6.9889 16.0036 6.98775C16.1364 6.9866 16.2681 7.0119 16.391 7.06218C16.5138 7.11246 16.6255 7.18671 16.7194 7.2806C16.8133 7.3745 16.8875 7.48615 16.9378 7.60905C16.9881 7.73194 17.0134 7.86362 17.0123 7.9964C17.0111 8.12918 16.9835 8.2604 16.9311 8.3824C16.8787 8.50441 16.8025 8.61475 16.707 8.707L13.414 12L16.707 15.293C16.8892 15.4816 16.99 15.7342 16.9877 15.9964C16.9854 16.2586 16.8802 16.5094 16.6948 16.6948C16.5094 16.8802 16.2586 16.9854 15.9964 16.9877C15.7342 16.99 15.4816 16.8892 15.293 16.707L12 13.414L8.707 16.707C8.51947 16.8945 8.26516 16.9998 8 16.9998C7.73484 16.9998 7.48053 16.8945 7.293 16.707Z" fill="#2D3744"/>
</svg>
