<svg width="24" height="24" viewBox="0 0 24 24" fill="none" xmlns="http://www.w3.org/2000/svg">
<g clip-path="url(#clip0_2056_481)">
<path d="M20.4853 3.51473C18.2188 1.24819 15.2053 0 12 0C8.79469 0 5.78119 1.24819 3.51473 3.51469C1.24819 5.78119 0 8.79469 0 12C0 15.2053 1.24819 18.2188 3.51473 20.4853C5.78119 22.7518 8.79469 24 12 24C15.2054 24 18.2188 22.7518 20.4853 20.4852C22.7518 18.2188 24 15.2053 24 12C24 8.79464 22.7518 5.78119 20.4853 3.51473ZM4.51013 4.51013C5.56533 3.45492 6.80409 2.65008 8.15428 2.12475C7.79466 2.57372 7.45814 3.08977 7.14975 3.67017C6.79158 4.34423 6.48253 5.08453 6.22514 5.87527C5.33348 5.72728 4.50731 5.54531 3.76922 5.33175C4.00199 5.0454 4.24928 4.77116 4.51013 4.51013ZM2.91698 6.54305C3.78028 6.81947 4.76756 7.05258 5.84484 7.23722C5.54484 8.51062 5.36827 9.88092 5.32613 11.2962H1.43138C1.542 9.59775 2.05209 7.97681 2.91698 6.54305ZM2.84034 17.3268C2.02214 15.9253 1.53867 14.3511 1.43133 12.7038H5.3288C5.37483 14.0786 5.54789 15.41 5.83777 16.65C4.73836 16.8283 3.72628 17.0555 2.84034 17.3268ZM4.51013 19.4899C4.21345 19.1931 3.93437 18.8792 3.6743 18.5498C4.43944 18.3376 5.29481 18.158 6.21558 18.0139C6.4748 18.8156 6.78717 19.5657 7.1497 20.248C7.4858 20.8805 7.85531 21.4363 8.25173 21.9123C6.86377 21.3881 5.59069 20.5703 4.51013 19.4899ZM11.2961 22.4116C10.227 22.1122 9.21562 21.1358 8.39288 19.5875C8.10511 19.046 7.85236 18.4552 7.63584 17.8256C8.79506 17.698 10.0286 17.6226 11.2961 17.6048V22.4116ZM11.2961 16.197C9.89044 16.2162 8.52033 16.3045 7.23722 16.4552C6.95419 15.2851 6.78389 14.0187 6.73716 12.7039H11.2962V16.197H11.2961ZM11.2961 11.2961H6.73448C6.77719 9.94453 6.9502 8.64277 7.24205 7.44295C8.51695 7.60233 9.8842 7.69927 11.2961 7.72702V11.2961ZM11.2961 6.31913C10.0237 6.29348 8.79286 6.21052 7.64184 6.07514C7.85705 5.45208 8.10783 4.86727 8.39288 4.33069C9.21558 2.78231 10.227 1.806 11.2961 1.50652V6.31913ZM21.1274 6.61781C21.9652 8.03311 22.4599 9.62714 22.5687 11.2961H18.674C18.6323 9.89719 18.4591 8.54227 18.1654 7.28142C19.2497 7.1063 20.2493 6.8835 21.1274 6.61781ZM19.4898 4.51013C19.7702 4.79079 20.0349 5.08671 20.2827 5.39653C19.5292 5.60227 18.6902 5.77688 17.7887 5.91741C17.5287 5.11078 17.2148 4.35623 16.8503 3.67017C16.5419 3.08977 16.2054 2.57372 15.8458 2.12475C17.1959 2.65008 18.4347 3.45492 19.4898 4.51013ZM12.7039 12.7039H17.2629C17.2158 14.0289 17.0432 15.305 16.7562 16.4826C15.4815 16.3241 14.1148 16.228 12.7039 16.201V12.7039ZM12.7039 11.2961V7.7317C14.1104 7.71323 15.4815 7.62572 16.7659 7.47558C17.053 8.66634 17.2232 9.95677 17.2655 11.2961H12.7039ZM12.7038 1.50652H12.7038C13.773 1.806 14.7843 2.78231 15.6071 4.33069C15.8967 4.8757 16.1509 5.47059 16.3683 6.10481C15.2076 6.23194 13.9726 6.3068 12.7038 6.32391V1.50652ZM12.7039 22.4116V17.6089C13.9751 17.6339 15.205 17.7161 16.3556 17.8506C16.1409 18.4709 15.891 19.0531 15.6071 19.5875C14.7844 21.1358 13.773 22.1122 12.7039 22.4116ZM19.4898 19.4899C18.4093 20.5704 17.1362 21.3881 15.7482 21.9123C16.1446 21.4362 16.5142 20.8805 16.8503 20.248C17.2074 19.5758 17.5158 18.8377 17.7728 18.0493C18.6852 18.1999 19.5293 18.3862 20.2813 18.6052C20.0339 18.9144 19.7697 19.2097 19.4898 19.4899ZM21.1222 17.391C20.2486 17.1102 19.2472 16.8739 18.1537 16.6875C18.4489 15.4368 18.6248 14.0925 18.6713 12.7039H22.5688C22.4596 14.3763 21.9632 15.9735 21.1222 17.391Z" fill="#053868"/>
</g>
<defs>
<clipPath id="clip0_2056_481">
<rect width="24" height="24" fill="white"/>
</clipPath>
</defs>
</svg>
