<svg width="32" height="32" viewBox="0 0 32 32" fill="none" xmlns="http://www.w3.org/2000/svg">
<path d="M7.00097 16.0418H11.6377V21.5475C11.6377 21.8236 11.8616 22.0475 12.1377 22.0475H19.8633C20.1395 22.0475 20.3633 21.8236 20.3633 21.5475V16.0418H25.0001C25.4418 16.0418 25.6665 15.5111 25.3592 15.1939L16.3597 5.90211C16.1633 5.6993 15.8379 5.6993 15.6415 5.90211L6.64184 15.1939C6.33459 15.5111 6.55944 16.0418 7.00097 16.0418Z" fill="#2D3744"/>
<path d="M12.1377 24.2487C11.8616 24.2487 11.6377 24.4725 11.6377 24.7487V25.7498C11.6377 26.026 11.8616 26.2498 12.1377 26.2498H19.8633C20.1395 26.2498 20.3633 26.026 20.3633 25.7498V24.7487C20.3633 24.4725 20.1395 24.2487 19.8633 24.2487H12.1377Z" fill="#2D3744"/>
</svg>
