<svg width="56" height="56" viewBox="0 0 56 56" fill="none" xmlns="http://www.w3.org/2000/svg">
<path d="M55 28C55 42.9117 42.9117 55 28 55C13.0883 55 1 42.9117 1 28C1 13.0883 13.0883 1 28 1C42.9117 1 55 13.0883 55 28Z" fill="#ED8B00"/>
<path d="M38.5127 17.504C38.3583 17.3493 38.175 17.2266 37.9731 17.1428C37.7712 17.0591 37.5548 17.016 37.3363 17.016C37.1177 17.016 36.9013 17.0591 36.6995 17.1428C36.4976 17.2266 36.3142 17.3493 36.1599 17.504L28 25.6472L19.8401 17.4873C19.6856 17.3328 19.5022 17.2103 19.3004 17.1266C19.0985 17.043 18.8822 17 18.6637 17C18.4452 17 18.2289 17.043 18.027 17.1266C17.8252 17.2103 17.6418 17.3328 17.4873 17.4873C17.3328 17.6418 17.2103 17.8252 17.1266 18.027C17.043 18.2289 17 18.4452 17 18.6637C17 18.8822 17.043 19.0985 17.1266 19.3004C17.2103 19.5022 17.3328 19.6856 17.4873 19.8401L25.6472 28L17.4873 36.1599C17.3328 36.3144 17.2103 36.4978 17.1266 36.6996C17.043 36.9015 17 37.1178 17 37.3363C17 37.5548 17.043 37.7711 17.1266 37.973C17.2103 38.1748 17.3328 38.3582 17.4873 38.5127C17.6418 38.6672 17.8252 38.7897 18.027 38.8734C18.2289 38.957 18.4452 39 18.6637 39C18.8822 39 19.0985 38.957 19.3004 38.8734C19.5022 38.7897 19.6856 38.6672 19.8401 38.5127L28 30.3528L36.1599 38.5127C36.3144 38.6672 36.4978 38.7897 36.6996 38.8734C36.9015 38.957 37.1178 39 37.3363 39C37.5548 39 37.7711 38.957 37.973 38.8734C38.1748 38.7897 38.3582 38.6672 38.5127 38.5127C38.6672 38.3582 38.7897 38.1748 38.8734 37.973C38.957 37.7711 39 37.5548 39 37.3363C39 37.1178 38.957 36.9015 38.8734 36.6996C38.7897 36.4978 38.6672 36.3144 38.5127 36.1599L30.3528 28L38.5127 19.8401C39.1468 19.206 39.1468 18.1381 38.5127 17.504Z" fill="white"/>
</svg>
