<svg width="33" height="32" viewBox="0 0 33 32" fill="none" xmlns="http://www.w3.org/2000/svg">
<path d="M15.7144 13.5251C15.4215 13.2322 15.4215 12.7574 15.7144 12.4645C16.0073 12.1716 16.4822 12.1716 16.775 12.4645L19.25 14.9394L21.7249 12.4645C22.0177 12.1716 22.4926 12.1716 22.7855 12.4645C23.0784 12.7573 23.0784 13.2322 22.7855 13.5251L20.3105 16L22.7855 18.4749C23.0784 18.7678 23.0784 19.2427 22.7855 19.5355C22.4926 19.8284 22.0177 19.8284 21.7249 19.5355L19.25 17.0607L16.775 19.5355C16.4822 19.8284 16.0073 19.8284 15.7145 19.5355C15.4215 19.2426 15.4215 18.7678 15.7145 18.4749L18.1893 16.0001L15.7144 13.5251Z" fill="#053868"/>
<path fill-rule="evenodd" clip-rule="evenodd" d="M12.6213 8.37866L5 16L12.6213 23.6213C13.184 24.184 13.947 24.5 14.7427 24.5H25C26.6569 24.5 28 23.1569 28 21.5V10.5C28 8.84314 26.6569 7.5 25 7.5H14.7427C13.947 7.5 13.184 7.8161 12.6213 8.37866ZM25 23.2H14.7427C14.2917 23.2 13.8594 23.0209 13.5405 22.7021L6.8385 16L13.5405 9.29791C13.8594 8.97913 14.2917 8.79999 14.7427 8.79999H25C25.9388 8.79999 26.7 9.5611 26.7 10.5V21.5C26.7 22.4389 25.9388 23.2 25 23.2Z" fill="#053868"/>
</svg>
